<svg width="32" height="32" viewBox="0 0 32 32" fill="none" xmlns="http://www.w3.org/2000/svg">
	<path fill-rule="evenodd" clip-rule="evenodd" d="M0 32H32V0H0V32Z" fill="black" />
	<path fill-rule="evenodd" clip-rule="evenodd" d="M0.615227 31.3845H31.3845V0.615231H0.615227V31.3845Z" fill="#FFF100" />
	<path fill-rule="evenodd" clip-rule="evenodd" d="M2.41475 25.3226L6.4701 29.3474L15.9574 19.9623L25.7629 29.5382L29.8766 25.5747L20.168 16.1184L22.0316 14.3589V10.6062L23.207 9.6397V12.5806L24.7105 13.7768L29.2244 9.386L30.6733 10.4724C31.5214 7.39758 26.5809 0.41692 22.488 4.28468L17.7251 8.88779L18.6984 10.0234L16.2762 12.33L13.9333 10.0796L15.1593 9.0031L9.9416 4.0902C6.01079 0.93523 1.98293 5.73447 1.84619 10.4156L3.27277 9.2537L7.66008 13.8561L9.2272 12.5806V9.7564L10.202 10.4724V14.1635L12.1102 16.0218L2.41475 25.3226Z" fill="black" />
</svg>
