<svg width="16" height="16" viewBox="0 0 16 16" fill="none" 
  xmlns="http://www.w3.org/2000/svg">
  <path d="M1.16127 4.46094L1.16137 4.46099C1.30715 4.53878 1.4876 4.575 1.70006 4.575L14.3003 4.575C14.5123 4.575 14.6933 4.53875 14.8388 4.46096L14.8389 4.46091C14.9842 4.38297 15.075 4.27205 15.075 4.12509L15.075 3.37511C15.075 3.22807 14.9842 3.11748 14.839 3.03931L14.839 3.03931L14.8388 3.03921C14.6934 2.96139 14.5123 2.925 14.3003 2.925L1.70006 2.925C1.48756 2.925 1.30703 2.9614 1.16135 3.03918L1.16114 3.0393C1.01587 3.11746 0.925 3.22804 0.925 3.37511L0.925 4.12509C0.925 4.27204 1.0157 4.38298 1.16127 4.46094ZM1.70006 3C1.49557 3 1.32823 3.0351 1.19668 3.10534L1.19668 4.39482C1.32831 4.46506 1.49557 4.5 1.70006 4.5L14.3003 4.5C14.5044 4.5 14.6721 4.46502 14.8035 4.39482C14.9344 4.32458 15 4.23467 15 4.12509L15 3.37511C15 3.2655 14.9345 3.17588 14.8035 3.10534C14.6721 3.0351 14.5044 3 14.3003 3L1.70006 3Z" fill="white" stroke="white" stroke-width="0.15"/>
  <path d="M2.75 3.75H13.25V14C13.25 14.6904 12.6904 15.25 12 15.25H4C3.30964 15.25 2.75 14.6904 2.75 14V3.75Z" stroke="white" stroke-width="1.5"/>
  <rect x="4.5" y="6" width="1.5" height="7" rx="0.5" fill="white"/>
  <rect x="10" y="6" width="1.5" height="7" rx="0.5" fill="white"/>
  <rect x="7.25" y="6" width="1.5" height="7" rx="0.5" fill="white"/>
  <path d="M5 3.25L5.72361 1.80279C5.893 1.464 6.23926 1.25 6.61803 1.25H9.38197C9.76074 1.25 10.107 1.464 10.2764 1.80279L11 3.25" stroke="white" stroke-width="1.5"/>
</svg>
