<svg width="16" height="16" viewBox="0 0 16 16" fill="none" xmlns="http://www.w3.org/2000/svg">
	<path d="M10.1595 11.9575H5.8291V4.13477H10.1595V11.9575Z" fill="#FF5F00" />
	<path d="M6.10546 8.03125C6.10546 6.44897 6.82931 5.02492 7.99375 4.1072C7.14402 3.44264 6.07399 3.03125 4.94102 3.03125C2.203 3.03125 0 5.24644 0 7.99961C0 10.7528 2.203 12.968 4.94102 12.968C6.10546 12.968 7.14402 12.5565 7.99375 11.892C6.82931 11.0376 6.10546 9.61353 6.10546 8.03125Z" fill="#EB001B" />
	<path d="M15.9996 8.03164C15.9996 10.7848 13.7966 13 11.0586 13C9.89416 13 8.85557 12.5886 8.00586 11.924C9.17032 11.0063 9.89416 9.61392 9.89416 8C9.89416 6.38608 9.17032 4.99367 8.00586 4.07595C8.85557 3.41139 9.92563 3 11.0586 3C13.7652 3.06329 15.9996 5.27848 15.9996 8.03164Z" fill="#F79E1B" />
</svg>
